<svg width="45" height="45" viewBox="0 0 45 45" fill="none" xmlns="http://www.w3.org/2000/svg">
<path d="M22.5 40.5C27.2739 40.5 31.8523 38.6036 35.2279 35.2279C38.6036 31.8523 40.5 27.2739 40.5 22.5C40.5 17.7261 38.6036 13.1477 35.2279 9.77208C31.8523 6.39642 27.2739 4.5 22.5 4.5C17.7261 4.5 13.1477 6.39642 9.77208 9.77208C6.39642 13.1477 4.5 17.7261 4.5 22.5C4.5 27.2739 6.39642 31.8523 9.77208 35.2279C13.1477 38.6036 17.7261 40.5 22.5 40.5ZM22.5 45C10.0733 45 0 34.9268 0 22.5C0 10.0733 10.0733 0 22.5 0C34.9268 0 45 10.0733 45 22.5C45 34.9268 34.9268 45 22.5 45Z" fill="#B491FF"/>
<path d="M31.5675 17.73H25.9312V16.3305H31.5697V17.7322L31.5675 17.73ZM22.1783 23.4742C22.5428 24.0367 22.7227 24.7207 22.7227 25.524C22.7227 26.3565 22.5203 27.099 22.1017 27.7582C21.823 28.2214 21.4503 28.621 21.0078 28.9314C20.5652 29.2418 20.0626 29.4561 19.5322 29.5605C18.8812 29.6907 18.2185 29.7541 17.5545 29.7495H11.25V15.75H18.0113C19.7145 15.777 20.9228 16.272 21.636 17.2418C22.0635 17.8358 22.2773 18.549 22.2773 19.3792C22.2773 20.2342 22.0635 20.9205 21.6292 21.4403C21.3907 21.7328 21.0353 21.9983 20.565 22.2368C21.276 22.4978 21.816 22.9072 22.1783 23.4742ZM14.4788 21.2692H17.442C18.0495 21.2692 18.5423 21.1545 18.9203 20.9227C19.3005 20.691 19.4895 20.2815 19.4895 19.692C19.4895 19.0395 19.2398 18.6075 18.738 18.4005C18.2019 18.2399 17.6437 18.1655 17.0843 18.18H14.4788V21.2692ZM19.7752 25.3238C19.7752 24.597 19.476 24.0952 18.8842 23.8252C18.5512 23.6722 18.0832 23.5935 17.4847 23.5867H14.4788V27.3172H17.4375C18.045 27.3172 18.5175 27.2385 18.855 27.072C19.467 26.7682 19.7752 26.1877 19.7752 25.3238ZM33.66 23.0468C33.7275 23.5058 33.759 24.1695 33.7478 25.038H26.4465C26.487 26.046 26.8335 26.7502 27.495 27.153C27.891 27.4072 28.3725 27.531 28.9395 27.531C29.5358 27.531 30.0195 27.3802 30.3953 27.0697C30.619 26.8788 30.8019 26.6446 30.933 26.3813H33.6105C33.5385 26.9775 33.2168 27.5805 32.6385 28.1947C31.7385 29.169 30.483 29.6572 28.8653 29.6572C27.5795 29.6739 26.3289 29.2374 25.3327 28.4243C24.3157 27.6008 23.8028 26.2642 23.8028 24.408C23.8028 22.6687 24.264 21.3368 25.1842 20.4097C26.1067 19.4805 27.3015 19.0193 28.773 19.0193C29.6438 19.0193 30.429 19.1745 31.131 19.4873C31.8285 19.8023 32.4067 20.295 32.8612 20.9722C33.273 21.5708 33.5362 22.2593 33.66 23.0468ZM31.0275 23.3078C30.978 22.6103 30.744 22.0837 30.3255 21.7237C29.8935 21.3559 29.3401 21.1618 28.773 21.1793C28.098 21.1793 27.5783 21.375 27.207 21.7552C26.8357 22.1377 26.604 22.6553 26.5095 23.3078H31.0275Z" fill="#B491FF"/>
</svg>
