<svg width="121" height="37" viewBox="0 0 121 37" fill="none" xmlns="http://www.w3.org/2000/svg">
<rect x="37" y="8" width="54" height="22" rx="11" stroke="#23211E" stroke-width="2"/>
<rect x="43" y="9" width="20" height="20" rx="10" stroke="#23211E" stroke-width="2"/>
<path d="M108 9C106.18 9 104.47 9.5 103 10.35C105.99 12.08 108 15.3 108 19C108 22.7 105.99 25.92 103 27.65C104.47 28.5 106.18 29 108 29C113.52 29 118 24.52 118 19C118 13.48 113.52 9 108 9Z" fill="#23211E"/>
<path d="M12.5 11.8C12.8315 11.8 13.1495 11.6736 13.3839 11.4485C13.6183 11.2235 13.75 10.9183 13.75 10.6V8.2C13.75 7.88174 13.6183 7.57652 13.3839 7.35147C13.1495 7.12643 12.8315 7 12.5 7C12.1685 7 11.8505 7.12643 11.6161 7.35147C11.3817 7.57652 11.25 7.88174 11.25 8.2V10.6C11.25 10.9183 11.3817 11.2235 11.6161 11.4485C11.8505 11.6736 12.1685 11.8 12.5 11.8ZM23.75 17.8H21.25C20.9185 17.8 20.6005 17.9264 20.3661 18.1515C20.1317 18.3765 20 18.6817 20 19C20 19.3183 20.1317 19.6235 20.3661 19.8485C20.6005 20.0736 20.9185 20.2 21.25 20.2H23.75C24.0815 20.2 24.3995 20.0736 24.6339 19.8485C24.8683 19.6235 25 19.3183 25 19C25 18.6817 24.8683 18.3765 24.6339 18.1515C24.3995 17.9264 24.0815 17.8 23.75 17.8ZM5 19C5 18.6817 4.8683 18.3765 4.63388 18.1515C4.39946 17.9264 4.08152 17.8 3.75 17.8H1.25C0.918479 17.8 0.600537 17.9264 0.366116 18.1515C0.131696 18.3765 0 18.6817 0 19C0 19.3183 0.131696 19.6235 0.366116 19.8485C0.600537 20.0736 0.918479 20.2 1.25 20.2H3.75C4.08152 20.2 4.39946 20.0736 4.63388 19.8485C4.8683 19.6235 5 19.3183 5 19ZM5.275 10.6C5.03133 10.3788 4.70612 10.2596 4.37089 10.2686C4.03567 10.2776 3.71791 10.4141 3.4875 10.648C3.25709 10.8819 3.13292 11.1941 3.1423 11.5159C3.15167 11.8378 3.29383 12.1428 3.5375 12.364L5.3375 14.032C5.45829 14.144 5.60135 14.2314 5.75813 14.2892C5.9149 14.3469 6.08219 14.3737 6.25 14.368C6.41838 14.3674 6.5849 14.3341 6.73955 14.2702C6.89421 14.2063 7.03382 14.113 7.15 13.996C7.38281 13.7712 7.51349 13.467 7.51349 13.15C7.51349 12.833 7.38281 12.5288 7.15 12.304L5.275 10.6ZM18.75 14.368C19.0718 14.3668 19.3808 14.2464 19.6125 14.032L21.4125 12.364C21.6321 12.1437 21.7561 11.8515 21.7594 11.5466C21.7626 11.2418 21.6449 10.9472 21.4301 10.7226C21.2153 10.4981 20.9195 10.3604 20.6028 10.3376C20.2861 10.3149 19.9723 10.4087 19.725 10.6L17.925 12.304C17.6922 12.5288 17.5615 12.833 17.5615 13.15C17.5615 13.467 17.6922 13.7712 17.925 13.996C18.1414 14.2153 18.436 14.3481 18.75 14.368ZM12.5 26.2C12.1685 26.2 11.8505 26.3264 11.6161 26.5515C11.3817 26.7765 11.25 27.0817 11.25 27.4V29.8C11.25 30.1183 11.3817 30.4235 11.6161 30.6485C11.8505 30.8736 12.1685 31 12.5 31C12.8315 31 13.1495 30.8736 13.3839 30.6485C13.6183 30.4235 13.75 30.1183 13.75 29.8V27.4C13.75 27.0817 13.6183 26.7765 13.3839 26.5515C13.1495 26.3264 12.8315 26.2 12.5 26.2ZM19.6625 23.968C19.4238 23.7468 19.1034 23.6257 18.7717 23.6313C18.4399 23.637 18.1242 23.7689 17.8938 23.998C17.6633 24.2271 17.5372 24.5348 17.5431 24.8532C17.5489 25.1716 17.6863 25.4748 17.925 25.696L19.725 27.4C19.9567 27.6144 20.2657 27.7348 20.5875 27.736C20.755 27.7369 20.921 27.7056 21.0756 27.6437C21.2302 27.5819 21.3703 27.4908 21.4875 27.376C21.6047 27.2644 21.6977 27.1317 21.7611 26.9855C21.8246 26.8393 21.8572 26.6824 21.8572 26.524C21.8572 26.3656 21.8246 26.2087 21.7611 26.0625C21.6977 25.9163 21.6047 25.7836 21.4875 25.672L19.6625 23.968ZM5.3375 23.968L3.5375 25.636C3.42034 25.7476 3.32735 25.8803 3.26389 26.0265C3.20043 26.1727 3.16775 26.3296 3.16775 26.488C3.16775 26.6464 3.20043 26.8033 3.26389 26.9495C3.32735 27.0957 3.42034 27.2284 3.5375 27.34C3.65474 27.4548 3.79482 27.5459 3.94943 27.6077C4.10404 27.6696 4.27001 27.7009 4.4375 27.7C4.74564 27.7025 5.0439 27.5957 5.275 27.4L7.075 25.732C7.31369 25.5108 7.45108 25.2076 7.45695 24.8892C7.46281 24.5708 7.33666 24.2631 7.10625 24.034C6.87584 23.8049 6.56005 23.673 6.22835 23.6673C5.89664 23.6617 5.57619 23.7828 5.3375 24.004V23.968ZM12.5 14.2C11.5111 14.2 10.5444 14.4815 9.72215 15.0089C8.8999 15.5364 8.25904 16.286 7.8806 17.1631C7.50216 18.0402 7.40315 19.0053 7.59607 19.9364C7.789 20.8675 8.2652 21.7228 8.96447 22.3941C9.66373 23.0654 10.5546 23.5226 11.5245 23.7078C12.4945 23.893 13.4998 23.7979 14.4134 23.4346C15.327 23.0713 16.1079 22.4561 16.6573 21.6667C17.2068 20.8774 17.5 19.9493 17.5 19C17.5 17.727 16.9732 16.5061 16.0355 15.6059C15.0979 14.7057 13.8261 14.2 12.5 14.2V14.2Z" fill="#23211E"/>
</svg>
