<svg width="45" height="45" viewBox="0 0 45 45" fill="none" xmlns="http://www.w3.org/2000/svg">
<path d="M33.75 25.0441V33.3623H28.9283V25.5998C28.9283 23.6513 28.2307 22.3216 26.4847 22.3216C25.1528 22.3216 24.3585 23.2171 24.0097 24.0856C23.8837 24.3961 23.85 24.8281 23.85 25.2601V33.3623H19.026C19.026 33.3623 19.0913 20.2178 19.026 18.8566H23.85V20.9108L23.8185 20.9581H23.85V20.9131C24.4913 19.9231 25.6342 18.5146 28.197 18.5146C31.3695 18.5146 33.75 20.5891 33.75 25.0441ZM13.9793 11.8613C12.33 11.8613 11.25 12.9458 11.25 14.3678C11.25 15.7628 12.2985 16.8766 13.9163 16.8766H13.9478C15.6308 16.8766 16.677 15.7606 16.677 14.3678C16.6455 12.9458 15.6308 11.8613 13.9793 11.8613ZM11.5357 33.3623H16.3597V18.8566H11.5357V33.3623Z" fill="#B491FF"/>
<path d="M22.5 40.5C27.2739 40.5 31.8523 38.6036 35.2279 35.2279C38.6036 31.8523 40.5 27.2739 40.5 22.5C40.5 17.7261 38.6036 13.1477 35.2279 9.77208C31.8523 6.39642 27.2739 4.5 22.5 4.5C17.7261 4.5 13.1477 6.39642 9.77208 9.77208C6.39642 13.1477 4.5 17.7261 4.5 22.5C4.5 27.2739 6.39642 31.8523 9.77208 35.2279C13.1477 38.6036 17.7261 40.5 22.5 40.5ZM22.5 45C10.0733 45 0 34.9268 0 22.5C0 10.0733 10.0733 0 22.5 0C34.9268 0 45 10.0733 45 22.5C45 34.9268 34.9268 45 22.5 45Z" fill="#B491FF"/>
</svg>
