<svg width="45" height="45" viewBox="0 0 45 45" fill="none" xmlns="http://www.w3.org/2000/svg">
<path d="M16.569 27.5618C19.5066 27.5618 21.888 25.1804 21.888 22.2428C21.888 19.3052 19.5066 16.9238 16.569 16.9238C13.6314 16.9238 11.25 19.3052 11.25 22.2428C11.25 25.1804 13.6314 27.5618 16.569 27.5618Z" fill="#B491FF"/>
<path d="M28.4167 27.5618C31.3543 27.5618 33.7357 25.1804 33.7357 22.2428C33.7357 19.3052 31.3543 16.9238 28.4167 16.9238C25.4791 16.9238 23.0977 19.3052 23.0977 22.2428C23.0977 25.1804 25.4791 27.5618 28.4167 27.5618Z" fill="#B491FF"/>
<path d="M22.5 40.5C27.2739 40.5 31.8523 38.6036 35.2279 35.2279C38.6036 31.8523 40.5 27.2739 40.5 22.5C40.5 17.7261 38.6036 13.1477 35.2279 9.77208C31.8523 6.39642 27.2739 4.5 22.5 4.5C17.7261 4.5 13.1477 6.39642 9.77208 9.77208C6.39642 13.1477 4.5 17.7261 4.5 22.5C4.5 27.2739 6.39642 31.8523 9.77208 35.2279C13.1477 38.6036 17.7261 40.5 22.5 40.5ZM22.5 45C10.0733 45 0 34.9245 0 22.5C0 10.0733 10.0733 0 22.5 0C34.9268 0 45 10.0733 45 22.5C45 34.9245 34.9268 45 22.5 45Z" fill="#B491FF"/>
</svg>
