<svg width="41" height="50" viewBox="0 0 41 50" fill="none" xmlns="http://www.w3.org/2000/svg">
<path d="M2 47.6948C5.33279 47.6948 9.11931 45.4958 12.2028 43.5309C15.7102 41.2961 17.7561 39.5528 20.0056 36.6194C22.3599 33.5493 24.2834 30.0498 26.0615 26.4896C27.2949 24.02 27.8592 21.0819 28.9355 18.5479" stroke="#23211E" stroke-width="3" stroke-linecap="round" stroke-linejoin="round"/>
<path d="M25.8085 13.0502C25.9712 14.9655 27.577 17.0539 28.9827 18.5182C29.6458 18.5182 31.5393 18.186 32.1554 17.901C34.9678 16.6004 35.2636 12.3907 34.5959 9.36728C34.035 6.82764 32.923 4.43982 32.1554 2C30.8872 2.26691 30.4791 2.72526 29.6629 3.38795C28.0317 4.71228 26.8061 7.17859 26.4887 8.4593C26.1713 9.74001 25.6859 11.6071 25.8085 13.0502Z" stroke="#23211E" stroke-width="3" stroke-linecap="round" stroke-linejoin="round"/>
<path d="M15.9286 22.1395C16.9083 26.8726 19.4731 30.7118 23.7762 30.8266C25.5675 27.6742 25.2561 22.9804 24.006 19.6932C23.0416 17.157 21.9175 15.6482 20.5173 13.1478C20.4378 12.7284 17.7381 15.4176 17.5703 15.6482C16.2488 17.4656 15.4307 19.7342 15.9286 22.1395Z" stroke="#23211E" stroke-width="3" stroke-linecap="round" stroke-linejoin="round"/>
<path d="M28.6105 26.2384C26.6603 27.152 25.3681 29.4227 23.7656 30.9554C24.2933 31.811 24.5775 32.1986 25.2269 32.8569C26.1862 34.0552 28.0394 34.3577 29.274 34.3496C31.7409 34.3334 34.6774 34.0602 36.6934 32.1986C38.2237 30.7855 38.5799 28.9084 38.9589 26.788C39.017 26.463 38.9993 25.1014 38.9993 25.1014C37.6159 24.5806 35.6274 24.4924 34.1976 24.5377C32.328 24.5969 30.3574 25.4201 28.6105 26.2384Z" stroke="#23211E" stroke-width="3" stroke-linecap="round" stroke-linejoin="round"/>
<path d="M8.16602 30.3345C8.16602 35.1043 13.0461 38.8219 16.6644 40.2217C17.812 38.1922 20.3598 35.667 19.3691 32.8817C17.8823 28.7019 14.596 25.7414 12.7273 21.8247C12.6693 21.7032 12.2471 21.0039 12.2471 21.0039C11.6481 21.4277 10.3341 23.2202 9.97259 23.8747C8.83047 25.9426 8.16602 27.7683 8.16602 30.3345Z" stroke="#23211E" stroke-width="3" stroke-linecap="round" stroke-linejoin="round"/>
<path d="M33.7038 36.4658C28.1353 35.7535 21.3001 36.9948 16.5996 40.2707C17.054 40.5371 17.8708 41.2671 18.3138 41.6417C19.5492 42.6865 21.5108 43.2857 22.9613 43.746C26.7714 44.9552 30.6306 45.638 33.7038 41.9148C34.4453 41.0163 34.8885 39.8868 35.3418 38.7883C35.5562 38.2688 36.0077 36.7808 36.0077 36.7808C36.0077 36.7808 34.3332 36.5463 33.7038 36.4658Z" stroke="#23211E" stroke-width="3" stroke-linecap="round" stroke-linejoin="round"/>
</svg>
